<svg viewBox="0 0 40 40" fill="none" xmlns="http://www.w3.org/2000/svg">
  <defs>
    <radialGradient id="g" cx="50%" cy="50%" r="50%">
      <stop offset="0%" stop-color="#93C5FD" stop-opacity="0.35"/>
      <stop offset="100%" stop-color="#93C5FD" stop-opacity="0"/>
    </radialGradient>
  </defs>

  <!-- Outer hex ring -->
  <line x1="33"   y1="20"   x2="26.5" y2="31.3" stroke="#1E40AF" stroke-width="1"/>
  <line x1="26.5" y1="31.3" x2="13.5" y2="31.3" stroke="#1E40AF" stroke-width="1"/>
  <line x1="13.5" y1="31.3" x2="7"    y2="20"   stroke="#1E40AF" stroke-width="1"/>
  <line x1="7"    y1="20"   x2="13.5" y2="8.7"  stroke="#1E40AF" stroke-width="1"/>
  <line x1="13.5" y1="8.7"  x2="26.5" y2="8.7"  stroke="#1E40AF" stroke-width="1"/>
  <line x1="26.5" y1="8.7"  x2="33"   y2="20"   stroke="#1E40AF" stroke-width="1"/>

  <!-- Spokes -->
  <line x1="20" y1="20" x2="33"   y2="20"   stroke="#2563EB" stroke-width="1"/>
  <line x1="20" y1="20" x2="26.5" y2="31.3" stroke="#2563EB" stroke-width="1"/>
  <line x1="20" y1="20" x2="13.5" y2="31.3" stroke="#2563EB" stroke-width="1"/>
  <line x1="20" y1="20" x2="7"    y2="20"   stroke="#2563EB" stroke-width="1"/>
  <line x1="20" y1="20" x2="13.5" y2="8.7"  stroke="#2563EB" stroke-width="1"/>
  <line x1="20" y1="20" x2="26.5" y2="8.7"  stroke="#2563EB" stroke-width="1"/>

  <!-- Outer nodes -->
  <circle cx="33"   cy="20"   r="2.2" fill="#3B82F6"/>
  <circle cx="26.5" cy="31.3" r="2.2" fill="#3B82F6"/>
  <circle cx="13.5" cy="31.3" r="2.2" fill="#3B82F6"/>
  <circle cx="7"    cy="20"   r="2.2" fill="#3B82F6"/>
  <circle cx="13.5" cy="8.7"  r="2.2" fill="#3B82F6"/>
  <circle cx="26.5" cy="8.7"  r="2.2" fill="#3B82F6"/>

  <!-- Center glow -->
  <circle cx="20" cy="20" r="8"   fill="url(#g)"/>
  <circle cx="20" cy="20" r="4.5" fill="#1D4ED8" fill-opacity="0.4"/>
  <circle cx="20" cy="20" r="3"   fill="#2563EB"/>
  <circle cx="20" cy="20" r="1.6" fill="#93C5FD"/>
</svg>
